<?xml version='1.0' encoding='UTF-8' standalone='no'?>
<!-- Created with Fritzing (http://www.fritzing.org/) -->
<svg xmlns:svg='http://www.w3.org/2000/svg' xmlns='http://www.w3.org/2000/svg' version='1.2' baseProfile='tiny' x='0in' y='0in' width='0.22954in' height='0.449153in' viewBox='0 0 16.5269 32.339' >
<path stroke='#8c8c8c' stroke-width='2.15998' stroke-linecap='round' stroke-linejoin='round' fill='none' d='M1.07999,24.081L1.07999,31.259' />
<path stroke='#8c8c8c' stroke-width='2.15998' stroke-linecap='round' stroke-linejoin='round' fill='none' d='M8.26094,24.081L8.26094,31.259' />
<path stroke='#8c8c8c' stroke-width='2.15998' stroke-linecap='round' stroke-linejoin='round' fill='none' d='M15.4469,24.081L15.4469,31.259' />
<g partID='854842570'><g xmlns="http://www.w3.org/2000/svg" id="breadboard">
 <rect xmlns="http://www.w3.org/2000/svg" fill="none" id="connector0pin" x="0" y="22.081" height="1" width="2.15998"/>
 <rect xmlns="http://www.w3.org/2000/svg" fill="none" id="connector1pin" x="7.18095" y="22.081" height="1" width="2.15998"/>
 <rect xmlns="http://www.w3.org/2000/svg" fill="none" id="connector2pin" x="14.3669" y="22.081" height="1" width="2.15998"/>
 <g xmlns="http://www.w3.org/2000/svg" fill="none" stroke-linecap="round" stroke-width="2.15998" id="connector0leg" stroke="#8C8C8C" y1="24.081" y2="31.259" x1="1.08" x2="1.08"/>
 <g xmlns="http://www.w3.org/2000/svg" fill="none" stroke-linecap="round" stroke-width="2.15998" id="connector1leg" stroke="#8C8C8C" y1="24.081" y2="31.259" x1="8.261" x2="8.261"/>
 <g xmlns="http://www.w3.org/2000/svg" fill="none" stroke-linecap="round" stroke-width="2.15998" id="connector2leg" stroke="#8C8C8C" y1="24.081" y2="31.259" x1="15.447" x2="15.447"/>
 <rect xmlns="http://www.w3.org/2000/svg" fill="#8C8C8C" id="rect9506" x="7.17795" y="14.731" height="9.351" width="2.15398"/>
 <path xmlns="http://www.w3.org/2000/svg" fill="#8C8C8C" d="M3.28698,14.731l0,3.316c0,0.424,-0.781994,1.059,-1.19799,1.425c-1.02499,0.891,-2.08798,1.819,-2.08798,2.992l0,1.619l2.15398,0c0,0,0,-1,0,-1.21c0,-0.517,0.903993,-1.389,1.34999,-1.769c0.996993,-0.87,1.94499,-1.69,1.94499,-2.749l0,-3.625L3.28698,14.73L3.28698,14.731z" id="path9510"/>
 <path xmlns="http://www.w3.org/2000/svg" fill="#8C8C8C" d="M13.2209,14.731l0,3.316c0,0.424,0.780994,1.059,1.19899,1.425c1.02699,0.891,2.08898,1.819,2.08898,2.992l0,1.619l-2.15398,0c0,0,0,-1,0,-1.21c0,-0.517,-0.903993,-1.389,-1.34999,-1.769c-0.997993,-0.87,-1.94499,-1.69,-1.94499,-2.749l0,-3.625L13.2209,14.73L13.2209,14.731z" id="path9514"/>
 <rect xmlns="http://www.w3.org/2000/svg" fill="#1A1A1A" id="rect9553" x="1.61499" y="4.659" height="10.07" width="13.2779"/>
 <path xmlns="http://www.w3.org/2000/svg" fill="#141414" d="M13.8889,4.659l0,2.453l0,8.228l0,1.842c0.631995,-0.713,1.00399,-1.553,1.00399,-2.453l0,0L14.8929,4.659L13.8889,4.659z" id="path9555"/>
 <path xmlns="http://www.w3.org/2000/svg" fill="#242424" d="M2.62098,4.659L1.61599,4.659l0,10.07l0,0c0,0.899,0.372997,1.74,1.00499,2.453L2.62098,15.34L2.62098,7.112L2.62098,4.659z" id="path9557"/>
 <path xmlns="http://www.w3.org/2000/svg" fill="#1F1F1F" d="M1.61499,4.659L1.61499,4.659c0,0.899,0.372997,1.74,1.00499,2.453l11.2759,0c0.631995,-0.713,1.00499,-1.554,1.00499,-2.453l0,0L1.61499,4.659z" id="path9559"/>
 <path xmlns="http://www.w3.org/2000/svg" fill="#141414" d="M8.25494,0C4.58697,0,1.61499,2.086,1.61499,4.661l13.2779,0C14.8929,2.086,11.9229,0,8.25494,0z" id="path9561"/>
 <rect xmlns="http://www.w3.org/2000/svg" id="rect9563" x="2.62098" y="7.112" height="10.07" width="11.2759"/>
 <path xmlns="http://www.w3.org/2000/svg" fill="#999999" d="M4.98996,14.359l0,-5.4l2.15998,0l0,1.079l1.07999,0l0,1.08l1.08099,0L9.31093,8.958l2.15898,0l0,5.4L9.31193,14.358l0,-1.079L8.23094,13.279l0,-1.08l-1.07999,0l0,2.161L4.98996,14.36z"/>
</g>
</g></svg>